<mxfile host="Electron" modified="2024-04-23T13:21:11.292Z" agent="Mozilla/5.0 (Windows NT 10.0; Win64; x64) AppleWebKit/537.36 (KHTML, like Gecko) draw.io/22.1.16 Chrome/120.0.6099.109 Electron/28.1.0 Safari/537.36" etag="7KuTlR5HDOeWlZd5GdDH" version="22.1.16" type="device">
  <diagram name="Page-1" id="6Nm_M0fy3vFOK4-tdXmD">
    <mxGraphModel dx="1208" dy="702" grid="1" gridSize="10" guides="1" tooltips="1" connect="1" arrows="1" fold="1" page="1" pageScale="1" pageWidth="850" pageHeight="1100" math="0" shadow="0">
      <root>
        <mxCell id="0" />
        <mxCell id="1" parent="0" />
      </root>
    </mxGraphModel>
  </diagram>
</mxfile>
